<?xml version="1.0" encoding="utf-8"?>
<!-- Generator: Adobe Illustrator 18.0.0, SVG Export Plug-In . SVG Version: 6.00 Build 0)  -->
<!DOCTYPE svg PUBLIC "-//W3C//DTD SVG 1.1//EN" "http://www.w3.org/Graphics/SVG/1.1/DTD/svg11.dtd">
<svg version="1.1" id="Capa_1" xmlns="http://www.w3.org/2000/svg" xmlns:xlink="http://www.w3.org/1999/xlink" x="0px" y="0px"
	 viewBox="0 0 32 32" enable-background="new 0 0 32 32" xml:space="preserve">
<g>
	<path fill="#1C2141" d="M21.1,21.9c-2,0-3.5-0.6-4.7-1.7c-1.2-1.1-1.7-2.5-1.7-4.1c0-1.6,0.6-3,1.8-4.2c1.2-1.1,2.8-1.7,4.8-1.7
		c1.5,0,2.8,0.3,3.8,0.9l-0.9,1.6c-0.9-0.4-1.8-0.6-2.7-0.6c-1.3,0-2.4,0.4-3.2,1.1c-0.8,0.7-1.3,1.7-1.3,2.8c0,1.1,0.4,2.1,1.2,2.8
		c0.8,0.7,1.9,1.1,3.1,1.1c0.6,0,1.2-0.1,1.8-0.3c0.3-0.1,0.6-0.2,0.9-0.4l0.9,1.6C23.8,21.6,22.5,21.9,21.1,21.9z"/>
	<ellipse fill="#1C2141" cx="21.1" cy="16" rx="2" ry="2.1"/>
	<path fill="#1C2141" d="M13.2,25c-0.6,0-1.2-0.3-1.6-0.7c-0.8-0.9-0.7-2.2,0.1-2.9c0.4-0.3,0.8-0.5,1.3-0.5c0.6,0,1.2,0.3,1.6,0.7
		c0.4,0.4,0.6,1,0.6,1.5c0,0.6-0.2,1.1-0.7,1.4C14.1,24.8,13.7,25,13.2,25L13.2,25z"/>
	<path fill="#1C2141" d="M12.6,29.2c-0.1,0-0.2,0-0.2,0c-1.6-0.1-3-0.7-4.1-1.9c-1.1-1.2-1.6-2.7-1.4-4.3c0.1-1.7,1-3.2,2.4-4.5
		c1.1-1,2.2-1.6,3.3-1.8c0.1,0.6,0.2,1.2,0.5,1.8c-0.9,0.3-1.7,0.8-2.3,1.3c-1,0.9-1.5,1.8-1.6,2.9c-0.1,1.1,0.2,2.1,1,2.9
		c0.8,0.8,1.7,1.3,2.8,1.3l0,0c1.1,0,2.1-0.4,3.1-1.3c0.5-0.4,0.9-0.9,1.2-1.4c0.2-0.3,0.3-0.6,0.5-1c0.5,0.2,1.1,0.4,1.7,0.6
		c-0.5,1.4-1.3,2.6-2.4,3.5C15.6,28.5,14.2,29.2,12.6,29.2z"/>
	<path fill="#1C2141" d="M12.7,15.4c-1.2-0.3-2.3-0.9-3.4-1.9C7.8,12.3,7,10.8,6.9,9.1C6.7,7.5,7.2,6,8.3,4.8
		c1.1-1.2,2.5-1.9,4.1-1.9c0.1,0,0.2,0,0.2,0c1.5,0,3,0.6,4.4,1.9c1.1,1,1.9,2.2,2.4,3.6c-0.6,0.2-1.2,0.4-1.7,0.6
		c-0.2-0.5-0.4-0.8-0.6-1.1c-0.3-0.5-0.7-1-1.2-1.4c-0.9-0.8-2-1.3-3-1.3c-1.1,0-2.1,0.4-2.8,1.3C9.3,7.3,9,8.2,9.1,9.3
		c0.1,1.1,0.7,2.1,1.6,2.9c0.6,0.6,1.4,1,2.4,1.4C12.9,14.2,12.8,14.8,12.7,15.4z"/>
	<path fill="#1C2141" d="M13,11.1c-0.5,0-1-0.2-1.3-0.5C11.2,10.3,11,9.8,11,9.2c0-0.6,0.2-1.1,0.6-1.5C12,7.2,12.6,7,13.2,7
		c0.5,0,1,0.2,1.3,0.5c0.8,0.7,0.9,2.1,0.1,2.9C14.2,10.9,13.6,11.1,13,11.1L13,11.1z"/>
</g>
</svg>
