<?xml version="1.0" encoding="utf-8"?>
<!-- Generator: Adobe Illustrator 18.0.0, SVG Export Plug-In . SVG Version: 6.00 Build 0)  -->
<!DOCTYPE svg PUBLIC "-//W3C//DTD SVG 1.1//EN" "http://www.w3.org/Graphics/SVG/1.1/DTD/svg11.dtd">
<svg version="1.1" id="Capa_1" xmlns="http://www.w3.org/2000/svg" xmlns:xlink="http://www.w3.org/1999/xlink" x="0px" y="0px"
	 viewBox="0 0 72 72" enable-background="new 0 0 72 72" xml:space="preserve">
<g>
	<path fill="#1C2141" d="M48.5,50.3c-4.8,0-8.6-1.4-11.4-4.1c-2.8-2.7-4.2-6.1-4.2-10.1c0-4,1.5-7.4,4.5-10.2
		c3-2.8,6.9-4.2,11.7-4.2c3.6,0,6.7,0.7,9.3,2.2l-2.2,4c-2.2-0.9-4.4-1.4-6.5-1.4c-3.1,0-5.7,0.9-7.8,2.7c-2,1.8-3.1,4.1-3.1,6.9
		c0,2.8,1,5.1,3,6.9c2,1.8,4.5,2.7,7.6,2.7c1.5,0,3-0.2,4.4-0.6c0.6-0.2,1.4-0.5,2.3-0.9l2.2,3.9C55.1,49.5,51.8,50.3,48.5,50.3z"/>
	<path fill="#1C2141" d="M48.4,41.2c-2.7,0-4.9-2.3-4.9-5.2c0-2.9,2.2-5.2,4.9-5.2c2.7,0,4.9,2.3,4.9,5.2
		C53.3,38.9,51.1,41.2,48.4,41.2z"/>
	<path fill="#1C2141" d="M29.1,58c-1.5,0-2.9-0.6-3.9-1.8c-1.9-2.1-1.8-5.3,0.2-7.1c0.9-0.8,2-1.2,3.2-1.2c1.5,0,2.9,0.6,3.9,1.8
		c0.9,1,1.4,2.3,1.4,3.7c0,1.3-0.6,2.6-1.6,3.4C31.5,57.6,30.3,58,29.1,58L29.1,58z"/>
	<path fill="#1C2141" d="M27.8,68.1c-0.2,0-0.4,0-0.6,0c-3.9-0.2-7.3-1.7-9.9-4.7c-2.7-3-3.9-6.5-3.5-10.6c0.3-4.1,2.3-7.7,5.9-10.9
		c2.6-2.3,5.4-3.8,8.1-4.5c0.2,1.5,0.6,3,1.1,4.4c-2.3,0.8-4.2,1.9-5.7,3.3c-2.3,2.1-3.7,4.5-4,7.1c-0.3,2.7,0.5,5.1,2.3,7.1
		c1.9,2.1,4.2,3.1,6.9,3.1l0,0c2.7,0,5.2-1,7.5-3.1c1.1-1,2.1-2.1,2.8-3.4c0.4-0.6,0.8-1.5,1.3-2.5c1.3,0.6,2.8,1.1,4.3,1.4
		c-1.3,3.4-3.2,6.2-5.8,8.6C35.1,66.5,31.5,68.1,27.8,68.1z"/>
	<path fill="#1C2141" d="M27.9,34.7c-2.8-0.7-5.6-2.2-8.2-4.5c-3.6-3.2-5.6-6.9-5.9-10.9c-0.3-4,0.9-7.6,3.5-10.6
		c2.7-3,6-4.6,9.9-4.7c0.2,0,0.4,0,0.6,0c3.7,0,7.3,1.5,10.7,4.5c2.6,2.3,4.6,5.3,5.9,8.7c-1.5,0.4-2.9,0.9-4.2,1.5
		c-0.5-1.1-1-2-1.4-2.7c-0.8-1.2-1.7-2.4-2.8-3.4c-2.3-2-4.8-3.1-7.4-3.1c-2.8,0-5.1,1.1-6.9,3.1c-1.9,2.1-2.6,4.5-2.3,7.1
		c0.3,2.6,1.7,5,4,7.1c1.6,1.4,3.5,2.5,5.8,3.3C28.5,31.7,28.1,33.1,27.9,34.7z"/>
	<path fill="#1C2141" d="M28.6,24.2c-1.2,0-2.3-0.4-3.2-1.2c-1-0.9-1.5-2.1-1.6-3.4c0-1.4,0.4-2.7,1.4-3.7c1-1.1,2.5-1.8,3.9-1.8
		c1.2,0,2.3,0.4,3.2,1.2c2,1.8,2.1,5,0.2,7.1C31.5,23.5,30.1,24.2,28.6,24.2L28.6,24.2z"/>
</g>
</svg>
