<?xml version="1.0" encoding="utf-8"?>
<!-- Generator: Adobe Illustrator 18.0.0, SVG Export Plug-In . SVG Version: 6.00 Build 0)  -->
<!DOCTYPE svg PUBLIC "-//W3C//DTD SVG 1.1//EN" "http://www.w3.org/Graphics/SVG/1.1/DTD/svg11.dtd">
<svg version="1.1" id="Capa_1" xmlns="http://www.w3.org/2000/svg" xmlns:xlink="http://www.w3.org/1999/xlink" x="0px" y="0px"
	 viewBox="0 0 114 114" enable-background="new 0 0 114 114" xml:space="preserve">
<g>
	<path fill="#1C2141" d="M76.6,79.5c-7.5,0-13.6-2.2-18-6.5c-4.4-4.3-6.6-9.6-6.6-15.9c0-6.3,2.4-11.7,7-16
		c4.7-4.4,10.9-6.6,18.5-6.6c5.7,0,10.6,1.1,14.6,3.4l-3.5,6.3c-3.5-1.4-7-2.1-10.3-2.1c-4.9,0-9,1.4-12.2,4.2
		c-3.2,2.8-4.8,6.4-4.8,10.8c0,4.4,1.6,8,4.7,10.9c3.1,2.8,7.2,4.2,12,4.2c2.4,0,4.7-0.3,6.9-1c1-0.3,2.2-0.7,3.6-1.4l3.5,6.1
		C87.1,78.3,81.9,79.5,76.6,79.5z"/>
	<path fill="#1C2141" d="M76.5,65.1c-4.3,0-7.8-3.7-7.8-8.1s3.5-8.1,7.8-8.1s7.8,3.7,7.8,8.1S80.8,65.1,76.5,65.1z"/>
	<path fill="#1C2141" d="M46.2,91.6c-2.3,0-4.6-1-6.2-2.8c-3-3.3-2.9-8.4,0.3-11.2c1.4-1.2,3.2-1.9,5.1-1.9c2.3,0,4.6,1,6.2,2.8
		c1.5,1.6,2.2,3.7,2.2,5.8c-0.1,2.1-1,4-2.5,5.4C49.9,90.9,48.1,91.6,46.2,91.6L46.2,91.6z"/>
	<path fill="#1C2141" d="M44.2,107.5c-0.3,0-0.6,0-0.9,0c-6.2-0.3-11.4-2.8-15.6-7.4c-4.2-4.7-6.1-10.3-5.6-16.6
		c0.5-6.4,3.7-12.2,9.3-17.2c4.1-3.7,8.4-6.1,12.8-7.1c0.3,2.4,0.9,4.8,1.8,7c-3.5,1.3-6.6,3-9,5.2c-3.7,3.3-5.8,7.1-6.3,11.2
		c-0.5,4.2,0.7,8,3.7,11.2c2.9,3.2,6.6,4.9,10.8,4.9l0,0c4.3,0,8.2-1.6,11.8-4.8c1.8-1.6,3.3-3.4,4.5-5.3c0.6-1,1.3-2.3,2-3.9
		c2.1,0.9,4.3,1.7,6.7,2.2c-2,5.3-5.1,9.8-9.2,13.5C55.7,105,50,107.5,44.2,107.5z"/>
	<path fill="#1C2141" d="M44.2,54.9c-4.4-1-8.7-3.4-12.9-7.1c-5.6-5-8.8-10.8-9.3-17.2c-0.5-6.3,1.3-11.9,5.6-16.6
		c4.2-4.7,9.5-7.2,15.6-7.4c0.3,0,0.6,0,0.9,0C50,6.5,55.7,9,61,13.7c4.1,3.7,7.2,8.3,9.2,13.6c-2.3,0.6-4.5,1.4-6.6,2.3
		c-0.8-1.8-1.5-3.2-2.2-4.2c-1.2-1.9-2.7-3.7-4.5-5.3c-3.6-3.2-7.5-4.8-11.7-4.8c-4.4,0-8,1.7-10.9,4.9c-2.9,3.2-4.1,7-3.7,11.2
		c0.5,4.2,2.6,7.9,6.3,11.2c2.4,2.2,5.5,3.9,9.1,5.2C45.2,50.2,44.6,52.5,44.2,54.9z"/>
	<path fill="#1C2141" d="M45.4,38.4c-1.9,0-3.7-0.7-5.1-1.9c-1.5-1.4-2.4-3.3-2.5-5.4c-0.1-2.1,0.7-4.2,2.2-5.8
		c1.6-1.8,3.9-2.8,6.2-2.8c1.9,0,3.7,0.7,5.1,1.9c3.2,2.8,3.3,7.9,0.3,11.2C50,37.3,47.7,38.4,45.4,38.4L45.4,38.4z"/>
</g>
</svg>
