<?xml version="1.0" encoding="utf-8"?>
<!-- Generator: Adobe Illustrator 18.0.0, SVG Export Plug-In . SVG Version: 6.00 Build 0)  -->
<!DOCTYPE svg PUBLIC "-//W3C//DTD SVG 1.1//EN" "http://www.w3.org/Graphics/SVG/1.1/DTD/svg11.dtd">
<svg version="1.1" id="Capa_1" xmlns="http://www.w3.org/2000/svg" xmlns:xlink="http://www.w3.org/1999/xlink" x="0px" y="0px"
	 viewBox="0 0 57 57" enable-background="new 0 0 57 57" xml:space="preserve">
<g>
	<path fill="#1C2141" d="M37.8,39.2c-3.6,0-6.5-1-8.6-3.1c-2.1-2-3.2-4.6-3.2-7.6c0-3,1.1-5.6,3.3-7.7c2.2-2.1,5.2-3.2,8.8-3.2
		c2.7,0,5,0.5,7,1.6l-1.7,3c-1.7-0.7-3.3-1-4.9-1c-2.4,0-4.3,0.7-5.8,2c-1.5,1.3-2.3,3.1-2.3,5.1c0,2.1,0.8,3.8,2.3,5.2
		c1.5,1.3,3.4,2,5.7,2c1.1,0,2.2-0.2,3.3-0.5c0.5-0.1,1.1-0.4,1.7-0.6l1.7,2.9C42.8,38.7,40.4,39.2,37.8,39.2z"/>
	<path fill="#1C2141" d="M37.8,32.4c-2,0-3.7-1.7-3.7-3.9s1.7-3.9,3.7-3.9c2,0,3.7,1.7,3.7,3.9S39.9,32.4,37.8,32.4z"/>
	<path fill="#1C2141" d="M23.3,45c-1.1,0-2.2-0.5-3-1.3c-1.4-1.6-1.4-4,0.2-5.4c0.7-0.6,1.5-0.9,2.4-0.9c1.1,0,2.2,0.5,3,1.3
		c0.7,0.8,1.1,1.8,1,2.8c0,1-0.5,1.9-1.2,2.6C25.1,44.7,24.2,45,23.3,45L23.3,45z"/>
	<path fill="#1C2141" d="M22.4,52.6c-0.1,0-0.3,0-0.4,0c-2.9-0.1-5.4-1.3-7.5-3.5c-2-2.2-2.9-4.9-2.6-7.9c0.3-3,1.7-5.8,4.4-8.2
		c2-1.8,4-2.9,6.1-3.4c0.2,1.2,0.5,2.3,0.8,3.3c-1.7,0.6-3.1,1.4-4.3,2.5c-1.8,1.6-2.8,3.4-3,5.4c-0.2,2,0.4,3.8,1.7,5.4
		c1.4,1.5,3.1,2.3,5.2,2.4l0,0c2,0,3.9-0.8,5.6-2.3c0.8-0.8,1.6-1.6,2.1-2.5c0.3-0.5,0.6-1.1,1-1.9c1,0.4,2.1,0.8,3.2,1.1
		c-1,2.5-2.4,4.7-4.4,6.4C27.9,51.4,25.2,52.6,22.4,52.6z"/>
	<path fill="#1C2141" d="M22.4,27.5c-2.1-0.5-4.2-1.6-6.1-3.4c-2.7-2.4-4.2-5.2-4.4-8.2c-0.2-3,0.6-5.7,2.6-7.9
		c2-2.2,4.5-3.4,7.5-3.5c0.1,0,0.3,0,0.4,0c2.8,0,5.5,1.1,8,3.4c2,1.8,3.5,3.9,4.4,6.5c-1.1,0.3-2.2,0.6-3.2,1.1
		c-0.4-0.8-0.7-1.5-1-2c-0.6-0.9-1.3-1.8-2.1-2.5c-1.7-1.5-3.6-2.3-5.6-2.3c-2.1,0-3.8,0.8-5.2,2.4c-1.4,1.5-2,3.3-1.7,5.4
		c0.2,2,1.2,3.8,3,5.4c1.2,1,2.6,1.9,4.4,2.5C22.9,25.2,22.6,26.3,22.4,27.5z"/>
	<path fill="#1C2141" d="M23,19.6c-0.9,0-1.8-0.3-2.4-0.9c-0.7-0.7-1.2-1.6-1.2-2.6c0-1,0.3-2,1-2.8c0.8-0.8,1.8-1.3,3-1.3
		c0.9,0,1.8,0.3,2.4,0.9c1.5,1.4,1.6,3.8,0.2,5.4C25.1,19.1,24.1,19.6,23,19.6L23,19.6z"/>
</g>
</svg>
