<?xml version="1.0" encoding="utf-8"?>
<!-- Generator: Adobe Illustrator 19.2.0, SVG Export Plug-In . SVG Version: 6.00 Build 0)  -->
<svg version="1.1" xmlns="http://www.w3.org/2000/svg" xmlns:xlink="http://www.w3.org/1999/xlink" x="0px" y="0px"
	 viewBox="0 0 1024 768" style="enable-background:new 0 0 1024 768;" xml:space="preserve">
<style type="text/css">
	.st0{display:none;}
	.st1{display:inline;fill:#14254F;}
	.st2{display:inline;opacity:0.81;fill:url(#SVGID_1_);}
	.st3{opacity:0.55;fill:url(#SVGID_2_);}
	.st4{opacity:0.55;fill:url(#SVGID_3_);}
	.st5{opacity:0.46;fill:#EC4663;}
	.st6{opacity:0.67;fill:#EC4663;}
	.st7{fill:#4AC1CC;}
	.st8{fill:#EC4663;}
	.st9{font-family:'AndaleMono';}
	.st10{font-size:157.7336px;}
	.st11{font-size:45.7163px;}
	.st12{display:inline;}
	.st13{fill:#010211;}
	.st14{fill:none;stroke:#33BECB;stroke-width:4;stroke-miterlimit:10;}
	.st15{fill:#FFFFFF;}
	.st16{display:inline;fill:#FFFFFF;}
	.st17{display:inline;opacity:0.3;fill:url(#SVGID_4_);}
</style>
<g id="Capa_6" class="st0">
	<rect class="st1" width="1024" height="767.2"/>
</g>
<g id="Capa_9" class="st0">
	<linearGradient id="SVGID_1_" gradientUnits="userSpaceOnUse" x1="512" y1="82.9316" x2="512" y2="903.8976">
		<stop  offset="0" style="stop-color:#0D1335"/>
		<stop  offset="0.4228" style="stop-color:#0C1233;stop-opacity:0.7886"/>
		<stop  offset="0.6337" style="stop-color:#0B0F2B;stop-opacity:0.6831"/>
		<stop  offset="0.7977" style="stop-color:#070B1E;stop-opacity:0.6011"/>
		<stop  offset="0.9367" style="stop-color:#03040B;stop-opacity:0.5316"/>
		<stop  offset="1" style="stop-color:#000000;stop-opacity:0.5"/>
	</linearGradient>
	<rect y="0.8" class="st2" width="1024" height="767.2"/>
</g>
<g id="Capa_7">
	<g>
		
			<radialGradient id="SVGID_2_" cx="302.6821" cy="621.2891" r="99.0254" gradientTransform="matrix(1 0 0 0.207 0 476.8829)" gradientUnits="userSpaceOnUse">
			<stop  offset="4.104449e-02" style="stop-color:#010102;stop-opacity:0.8"/>
			<stop  offset="1" style="stop-color:#0D1335;stop-opacity:0.1"/>
		</radialGradient>
		<rect x="210.2" y="586.3" class="st3" width="165" height="39.7"/>
		
			<radialGradient id="SVGID_3_" cx="769.3154" cy="621.2891" r="99.0254" gradientTransform="matrix(1 0 0 0.207 0 476.8829)" gradientUnits="userSpaceOnUse">
			<stop  offset="4.104449e-02" style="stop-color:#010102;stop-opacity:0.8"/>
			<stop  offset="1" style="stop-color:#0D1335;stop-opacity:0.1"/>
		</radialGradient>
		<rect x="676.8" y="586.3" class="st4" width="165" height="39.7"/>
		<g>
			<g>
				<g>
					<path class="st5" d="M809.9,537.8l-3.8,6.6l-26-6.6v55.8l-3.6,6.7l-1.3-6.7H752v-55.8H646.8l2.8-19.9l92.6-166h37.9v161.4h29.8
						V537.8z M752,513.3V379.7l-76.8,133.6H752z"/>
					<rect x="666.7" y="513.2" class="st6" width="85.4" height="7.9"/>
					<polygon class="st6" points="810.4,513.3 806.2,520.9 776.1,520.2 780.3,513.2 					"/>
					<polygon class="st6" points="739.1,359 777,359 780.6,352 742.7,352 					"/>
					<g>
						<path class="st7" d="M806.2,544.5h-29.8v55.8h-28.1v-55.8H643.1v-21.4l95.4-164.5h37.9V520h29.8V544.5z M748.3,520V386.4
							L671.6,520H748.3z"/>
					</g>
				</g>
				<g>
					<path class="st5" d="M377.9,537.8l-3.8,6.6l-26-6.6v55.8l-3.6,6.7l-1.3-6.7H320v-55.8H214.8l2.8-19.9l92.6-166h37.9v161.4h29.8
						V537.8z M320,513.3V379.7l-76.8,133.6H320z"/>
					<rect x="234.7" y="513.2" class="st6" width="85.4" height="7.9"/>
					<polygon class="st6" points="378.4,513.3 374.2,520.9 344.1,520.2 348.3,513.2 					"/>
					<polygon class="st6" points="307.1,359 345,359 348.6,352 310.7,352 					"/>
					<g>
						<path class="st7" d="M374.2,544.5h-29.8v55.8h-28.1v-55.8H211.1v-21.4l95.4-164.5h37.9V520h29.8V544.5z M316.3,520V386.4
							L239.6,520H316.3z"/>
					</g>
				</g>
			</g>
		</g>
	</g>
	<g>
		<g>
			<text transform="matrix(1 0 0 1 252.8716 218.044)" class="st8 st9 st10">Upsi!!</text>
		</g>
		<text transform="matrix(1 0 0 1 402.7588 262.4991)" class="st7 st9 st11">PAGE NOT FOUND!</text>
	</g>
</g>
<g id="Capa_8" class="st0">
	<g class="st12">
		<path class="st13" d="M408.4,597c10.4,10.2,52.4,17.8,102.6,17.8s92.1-7.6,102.6-17.8c-10.4-10.2-52.4-17.8-102.6-17.8
			S418.9,586.8,408.4,597z"/>
		<path class="st14" d="M613.6,597c-10.4-10.2-52.4-17.8-102.6-17.8s-92.1,7.6-102.6,17.8c10.4,10.2,52.4,17.8,102.6,17.8
			S603.1,607.2,613.6,597z"/>
		<ellipse class="st14" cx="511" cy="592.1" rx="105.1" ry="22.7"/>
		<path class="st15" d="M509.2,546.8L509.2,546.8c-1,0.1-1.8-0.7-1.8-1.6l-1.8-31.3c-0.1-1,0.7-1.8,1.6-1.8l0,0
			c1-0.1,1.8,0.7,1.8,1.6l1.8,31.3C510.9,545.9,510.2,546.8,509.2,546.8z"/>
		<path class="st15" d="M485,581.4L485,581.4c-1,0.2-1.9-0.5-2-1.4l-5.4-30.9c-0.2-1,0.5-1.9,1.4-2l0,0c1-0.2,1.9,0.5,2,1.4
			l5.4,30.9C486.6,580.4,485.9,581.3,485,581.4z"/>
		<path class="st15" d="M522.5,474.5L522.5,474.5c-1,0-1.8-0.8-1.8-1.8v-8.1c0-1,0.8-1.8,1.8-1.8l0,0c1,0,1.8,0.8,1.8,1.8v8.1
			C524.2,473.7,523.5,474.5,522.5,474.5z"/>
		<path class="st15" d="M557.8,454.1L557.8,454.1c-1-0.1-1.7-0.9-1.6-1.9l0.7-8c0.1-1,0.9-1.7,1.9-1.6l0,0c1,0.1,1.7,0.9,1.6,1.9
			l-0.7,8C559.6,453.5,558.7,454.2,557.8,454.1z"/>
		<path class="st15" d="M490,462.9L490,462.9c-1,0.1-1.8-0.6-1.9-1.6l-1-11c-0.1-1,0.6-1.8,1.6-1.9l0,0c1-0.1,1.8,0.6,1.9,1.6l1,11
			C491.7,462,491,462.8,490,462.9z"/>
		<path class="st15" d="M534.6,561.8L534.6,561.8c1,0.1,1.8-0.5,2-1.5l8-53.4c0.1-1-0.5-1.8-1.5-2l0,0c-1-0.1-1.8,0.5-2,1.5l-8,53.4
			C533,560.8,533.7,561.6,534.6,561.8z"/>
		<path class="st15" d="M558.7,524.4L558.7,524.4c-0.8-0.1-1.4-0.9-1.2-1.7l9.9-59.2c0.1-0.8,0.9-1.4,1.7-1.2l0,0
			c0.8,0.1,1.4,0.9,1.2,1.7l-9.9,59.2C560.3,524,559.5,524.5,558.7,524.4z"/>
		<path class="st15" d="M451.4,524.4L451.4,524.4c0.8-0.1,1.4-0.9,1.2-1.7l-9.9-59.2c-0.1-0.8-0.9-1.4-1.7-1.2l0,0
			c-0.8,0.1-1.4,0.9-1.2,1.7l9.9,59.2C449.9,524,450.6,524.5,451.4,524.4z"/>
		<path class="st15" d="M463.1,560.6L463.1,560.6c1-0.2,1.6-1.1,1.4-2l-0.7-3.6c-0.2-1-1.1-1.6-2-1.4l0,0c-1,0.2-1.6,1.1-1.4,2
			l0.7,3.6C461.3,560.2,462.2,560.8,463.1,560.6z"/>
		<path class="st15" d="M472.8,503.8L472.8,503.8c-1,0.1-1.8-0.6-1.9-1.6l-0.7-7c-0.1-1,0.6-1.8,1.6-1.9l0,0c1-0.1,1.8,0.6,1.9,1.6
			l0.7,7C474.5,502.9,473.8,503.7,472.8,503.8z"/>
	</g>
	<circle class="st16" cx="491.8" cy="400.8" r="0.9"/>
	<circle class="st16" cx="533.2" cy="415.4" r="1.3"/>
</g>
<g id="Capa_10">
	<g>
		<g>
			<path class="st8" d="M581.2,469.1c4.3,0,7.8-3.5,7.8-7.8v-19.2l11.8-2.9v-34.6l-11.8-2.9v-36.6c0-4.3-3.5-7.8-7.8-7.8H442.8
				c-4.3,0-7.8,3.5-7.8,7.8v36.6l-11.8,2.9v34.6l11.8,2.9v19.2c0,4.3,3.5,7.8,7.8,7.8h15.1v5.9c-9.6,1.2-17.4,8.6-19.1,18.1H429
				v39.1h7.8v5.8H429v3.1c0,10.5,8.6,19.1,19.1,19.1h2.7V538h-8.6v-5.8h8.6v-39.1h-6.4c1.5-6.5,6.9-11.6,13.6-12.7v62.2h17.4v5.8
				H467v27h8.3v5h-14.8v27h46.1v-27h-14.8v-5h8.3v-27h-8.3v-5.8h40.6v5.8h-8.3v27h8.3v5h-14.8v27h46.1v-27h-14.8v-5h8.3v-27h-8.3
				v-5.8h17.5v-62.2c6.6,1.1,12,6.1,13.5,12.6h-6.4v39.1h8.6v5.8h-8.6v22.2h2.7c10.5,0,19.1-8.6,19.1-19.1V538h-7.8v-5.8h7.8v-39.1
				h-9.9c-1.7-9.5-9.4-16.9-19-18.1v-5.9L581.2,469.1L581.2,469.1z M445.4,554.6c-5.5-1.1-9.9-5.6-10.8-11.2h10.8V554.6L445.4,554.6
				z M445.4,526.8h-11v-28.3h11L445.4,526.8L445.4,526.8z M578.6,554.6v-11.2h10.8C588.5,549,584.1,553.5,578.6,554.6z M589.6,526.8
				h-11v-28.3h11V526.8z M595.4,409v26.1l-6.4,1.6v-29.2L595.4,409z M428.6,435.1V409l6.4-1.6v29.2L428.6,435.1z M442.8,463.7
				c-1.3,0-2.4-1.1-2.4-2.4v-96.1c0-1.3,1.1-2.4,2.4-2.4h138.4c1.3,0,2.4,1.1,2.4,2.4v96.1c0,1.3-1.1,2.4-2.4,2.4h-15.1h-22.6v-0.9
				c0-9.4-7.7-17.1-17.1-17.1h-28.7c-9.4,0-17.1,7.7-17.1,17.1v0.9h-22.6H442.8z M538,463.7H486v-0.9c0-6.5,5.2-11.7,11.7-11.7h28.7
				c6.5,0,11.7,5.2,11.7,11.7L538,463.7L538,463.7z M465.9,601.9V600h35.3v1.9H465.9z M501.1,594.6h-35.3v-8.9h35.3V594.6
				L501.1,594.6z M486.3,580.3h-5.6v-5h5.6V580.3z M494.6,570h-22.2v-16.2h22.2V570z M486.3,548.4h-5.6v-5.8h5.6V548.4z
				 M522.8,601.9V600h35.3v1.9H522.8z M558.1,594.6h-35.3v-8.9h35.3V594.6z M543.2,580.3h-5.6v-5h5.6V580.3z M551.6,570h-22.2v-16.2
				h22.2V570z M543.2,548.4h-5.6v-5.8h5.6V548.4z M560.7,537.2h-97.4v-68.1h97.4V537.2z"/>
			<path class="st8" d="M446.9,454.5c-0.7,0-1.4,0.3-1.9,0.8c-0.5,0.5-0.8,1.2-0.8,1.9c0,0.7,0.3,1.4,0.8,1.9
				c0.5,0.5,1.2,0.8,1.9,0.8c0.7,0,1.4-0.3,1.9-0.8c0.5-0.5,0.8-1.2,0.8-1.9c0-0.7-0.3-1.4-0.8-1.9
				C448.3,454.8,447.6,454.5,446.9,454.5z"/>
			<circle class="st8" cx="446.9" cy="394.4" r="2.7"/>
			<path class="st8" d="M446.9,384.6c1.5,0,2.7-1.2,2.7-2.7c0-1.5-1.2-2.7-2.7-2.7c-1.5,0-2.7,1.2-2.7,2.7
				C444.2,383.4,445.4,384.6,446.9,384.6z"/>
			<circle class="st8" cx="446.9" cy="407" r="2.7"/>
			<path class="st8" d="M446.9,372c0.7,0,1.4-0.3,1.9-0.8c0.5-0.5,0.8-1.2,0.8-1.9c0-0.7-0.3-1.4-0.8-1.9c-0.5-0.5-1.2-0.8-1.9-0.8
				c-0.7,0-1.4,0.3-1.9,0.8c-0.5,0.5-0.8,1.2-0.8,1.9c0,0.7,0.3,1.4,0.8,1.9C445.5,371.7,446.2,372,446.9,372z"/>
			<path class="st8" d="M506.1,372c1.5,0,2.7-1.2,2.7-2.7s-1.2-2.7-2.7-2.7c-1.5,0-2.7,1.2-2.7,2.7C503.4,370.8,504.6,372,506.1,372
				z"/>
			<circle class="st8" cx="553.4" cy="369.3" r="2.7"/>
			<path class="st8" d="M541.6,372c1.5,0,2.7-1.2,2.7-2.7s-1.2-2.7-2.7-2.7c-1.5,0-2.7,1.2-2.7,2.7S540.1,372,541.6,372z"/>
			<circle class="st8" cx="565.3" cy="369.3" r="2.7"/>
			<circle class="st8" cx="529.8" cy="369.3" r="2.7"/>
			<circle class="st8" cx="494.2" cy="369.3" r="2.7"/>
			<circle class="st8" cx="517.9" cy="369.3" r="2.7"/>
			<circle class="st8" cx="470.6" cy="369.3" r="2.7"/>
			<circle class="st8" cx="482.4" cy="369.3" r="2.7"/>
			<circle class="st8" cx="458.7" cy="369.3" r="2.7"/>
			<path class="st8" d="M577.1,372c0.7,0,1.4-0.3,1.9-0.8s0.8-1.2,0.8-1.9c0-0.7-0.3-1.4-0.8-1.9c-0.5-0.5-1.2-0.8-1.9-0.8
				c-0.7,0-1.4,0.3-1.9,0.8c-0.5,0.5-0.8,1.2-0.8,1.9c0,0.7,0.3,1.4,0.8,1.9S576.4,372,577.1,372z"/>
			<path class="st8" d="M577.1,384.6c1.5,0,2.7-1.2,2.7-2.7c0-1.5-1.2-2.7-2.7-2.7c-1.5,0-2.7,1.2-2.7,2.7
				C574.4,383.4,575.6,384.6,577.1,384.6z"/>
			<path class="st8" d="M577.1,409.7c1.5,0,2.7-1.2,2.7-2.7s-1.2-2.7-2.7-2.7c-1.5,0-2.7,1.2-2.7,2.7S575.6,409.7,577.1,409.7z"/>
			<path class="st8" d="M577.1,397.1c1.5,0,2.7-1.2,2.7-2.7c0-1.5-1.2-2.7-2.7-2.7c-1.5,0-2.7,1.2-2.7,2.7
				C574.4,395.9,575.6,397.1,577.1,397.1z"/>
			<path class="st8" d="M577.1,454.5c-0.7,0-1.4,0.3-1.9,0.8s-0.8,1.2-0.8,1.9c0,0.7,0.3,1.4,0.8,1.9s1.2,0.8,1.9,0.8
				c0.7,0,1.4-0.3,1.9-0.8s0.8-1.2,0.8-1.9c0-0.7-0.3-1.4-0.8-1.9S577.8,454.5,577.1,454.5z"/>
			<path class="st8" d="M553.4,454.5c-1.5,0-2.7,1.2-2.7,2.7c0,1.5,1.2,2.7,2.7,2.7c1.5,0,2.7-1.2,2.7-2.7
				C556.1,455.7,554.9,454.5,553.4,454.5z"/>
			<path class="st8" d="M565.3,454.5c-1.5,0-2.7,1.2-2.7,2.7c0,1.5,1.2,2.7,2.7,2.7s2.7-1.2,2.7-2.7
				C568,455.7,566.8,454.5,565.3,454.5z"/>
			<path class="st8" d="M470.6,454.5c-1.5,0-2.7,1.2-2.7,2.7c0,1.5,1.2,2.7,2.7,2.7s2.7-1.2,2.7-2.7
				C473.3,455.7,472,454.5,470.6,454.5z"/>
			<path class="st8" d="M458.7,454.5c-1.5,0-2.7,1.2-2.7,2.7c0,1.5,1.2,2.7,2.7,2.7c1.5,0,2.7-1.2,2.7-2.7
				C461.4,455.7,460.2,454.5,458.7,454.5z"/>
			<path class="st8" d="M459.7,414.3c-9.6,0-17.4,7.8-17.4,17.4s7.8,17.4,17.4,17.4s17.4-7.8,17.4-17.4
				C477.1,422.1,469.3,414.3,459.7,414.3z M459.7,443.7c-6.6,0-12-5.4-12-12s5.4-12,12-12s12,5.4,12,12S466.3,443.7,459.7,443.7z"/>
			<path class="st7" d="M459.7,424.1c-4.2,0-7.6,3.4-7.6,7.6c0,4.2,3.4,7.6,7.6,7.6c4.2,0,7.6-3.4,7.6-7.6
				C467.3,427.5,463.9,424.1,459.7,424.1z M459.7,433.9c-1.2,0-2.2-1-2.2-2.2c0-1.2,1-2.2,2.2-2.2s2.2,1,2.2,2.2
				C461.9,432.9,460.9,433.9,459.7,433.9z"/>
			<path class="st8" d="M564.3,449.1c9.6,0,17.4-7.8,17.4-17.4c0-9.6-7.8-17.4-17.4-17.4s-17.4,7.8-17.4,17.4
				C546.9,441.3,554.7,449.1,564.3,449.1z M564.3,419.7c6.6,0,12,5.4,12,12s-5.4,12-12,12s-12-5.4-12-12
				C552.3,425.1,557.7,419.7,564.3,419.7z"/>
			<path class="st7" d="M564.3,439.3c4.2,0,7.6-3.4,7.6-7.6c0-4.2-3.4-7.6-7.6-7.6s-7.6,3.4-7.6,7.6
				C556.7,435.9,560.1,439.3,564.3,439.3z M564.3,429.5c1.2,0,2.2,1,2.2,2.2s-1,2.2-2.2,2.2s-2.2-1-2.2-2.2
				C562.1,430.5,563.1,429.5,564.3,429.5z"/>
			<polygon class="st8" points="477.4,503.9 472,503.9 472,511.6 469,511.6 469,517 472,517 472,532.7 477.4,532.7 477.4,517 
				480.5,517 480.5,511.6 477.4,511.6 			"/>
			<polygon class="st8" points="491.2,503.9 485.9,503.9 485.9,519.6 482.8,519.6 482.8,525 485.9,525 485.9,532.7 491.2,532.7 
				491.2,525 494.3,525 494.3,519.6 491.2,519.6 			"/>
			<polygon class="st8" points="499.7,532.7 505.1,532.7 505.1,517 508.1,517 508.1,511.6 505.1,511.6 505.1,503.9 499.7,503.9 
				499.7,511.6 496.6,511.6 496.6,517 499.7,517 			"/>
			<polygon class="st8" points="518.9,503.9 513.5,503.9 513.5,519.6 510.4,519.6 510.4,525 513.5,525 513.5,532.7 518.9,532.7 
				518.9,525 522,525 522,519.6 518.9,519.6 			"/>
			<path class="st8" d="M493.2,473.6h-24.6v24.6h24.6V473.6z M487.8,492.8H474V479h13.8V492.8z"/>
			<path class="st8" d="M510.1,498.2c6.8,0,12.3-5.5,12.3-12.3s-5.5-12.3-12.3-12.3s-12.3,5.5-12.3,12.3S503.3,498.2,510.1,498.2z
				 M510.1,492.8c-0.9,0-1.8-0.2-2.6-0.5l9-9c0.3,0.8,0.5,1.7,0.5,2.6C517,489.7,513.9,492.8,510.1,492.8z M510.1,479
				c0.9,0,1.8,0.2,2.6,0.5l-9,9c-0.3-0.8-0.5-1.7-0.5-2.6C503.2,482.1,506.3,479,510.1,479z"/>
			<path class="st8" d="M555.4,473.6H527v59.2h28.3V473.6z M550,527.3h-17.5V479H550V527.3z"/>
			<rect x="538.5" y="484.7" class="st8" width="5.4" height="36.9"/>
		</g>
	</g>
</g>
<g id="Capa_5" class="st0">
	
		<radialGradient id="SVGID_4_" cx="503.0005" cy="385.4999" r="718.0081" gradientTransform="matrix(1 0 0 0.6598 0 131.1388)" gradientUnits="userSpaceOnUse">
		<stop  offset="0" style="stop-color:#FFFFFF;stop-opacity:0.3"/>
		<stop  offset="7.174726e-02" style="stop-color:#F9F9F9;stop-opacity:0.289"/>
		<stop  offset="0.1649" style="stop-color:#E9E9E9;stop-opacity:0.2747"/>
		<stop  offset="0.27" style="stop-color:#CECECE;stop-opacity:0.2587"/>
		<stop  offset="0.3837" style="stop-color:#A9A9A9;stop-opacity:0.2413"/>
		<stop  offset="0.5045" style="stop-color:#797979;stop-opacity:0.2228"/>
		<stop  offset="0.6293" style="stop-color:#3F3F3F;stop-opacity:0.2037"/>
		<stop  offset="0.6532" style="stop-color:#333333;stop-opacity:0.2"/>
		<stop  offset="0.6603" style="stop-color:#333333;stop-opacity:0.2"/>
	</radialGradient>
	<rect class="st17" width="1024" height="768"/>
</g>
</svg>
