<?xml version="1.0" encoding="utf-8"?>
<!-- Generator: Adobe Illustrator 18.0.0, SVG Export Plug-In . SVG Version: 6.00 Build 0)  -->
<!DOCTYPE svg PUBLIC "-//W3C//DTD SVG 1.1//EN" "http://www.w3.org/Graphics/SVG/1.1/DTD/svg11.dtd">
<svg version="1.1" id="Capa_1" xmlns="http://www.w3.org/2000/svg" xmlns:xlink="http://www.w3.org/1999/xlink" x="0px" y="0px"
	 viewBox="0 0 200 200" enable-background="new 0 0 200 200" xml:space="preserve">
<pattern  x="-250" y="-250" width="100" height="100" patternUnits="userSpaceOnUse" id="Nueva_muestra_de_motivo_11" viewBox="0 -100 100 100" overflow="visible">
	<g>
		<polygon fill="none" points="0,0 100,0 100,-100 0,-100 		"/>
		<path fill="none" d="M53.5-47.6C53.5-47.6,53.5-47.6,53.5-47.6c0.2,0,0.5,0,0.6,0.2c0.3,0.3,0.3,0.8,0,1.1
			c-0.2,0.2-0.4,0.2-0.6,0.2c0,0,0,0,0,0c0.2,0,0.5,0,0.7-0.2c0.3-0.3,0.3-0.8,0-1.1C54-47.6,53.8-47.6,53.5-47.6z"/>
		<path fill="none" d="M3.1-97.5c0,0,0.1,0,0.1,0C3.2-97.5,3.2-97.5,3.1-97.5z"/>
		<path fill="#FFFFFF" d="M99.7-97.5c0.1,0,0.2,0,0.3,0v95c-0.1,0-0.2,0-0.3,0c-1.4,0-2.5,1.1-2.5,2.5H2.2c0-1.3-1-2.4-2.2-2.5v-95
			c1.3-0.2,2.2-1.2,2.2-2.5h94.9C97.2-98.6,98.3-97.5,99.7-97.5z M59.6-59.5c0.3,0.3,0.8,0.3,1.1,0c0.3-0.3,0.3-0.8,0-1.1
			c-0.3-0.3-0.8-0.3-1.1,0C59.3-60.3,59.3-59.8,59.6-59.5z M56.2-56.1c0.3,0.3,0.8,0.3,1.1,0c0.3-0.3,0.3-0.8,0-1.1
			c-0.3-0.3-0.8-0.3-1.1,0C55.9-56.9,55.9-56.4,56.2-56.1z M53.1-52.9c0.1,0.1,0.3,0.2,0.5,0.2c0.2,0,0.5,0,0.6-0.2
			c0.3-0.3,0.3-0.8,0-1.1c-0.2-0.2-0.4-0.2-0.7-0.2c-0.2,0-0.3,0.1-0.4,0.2C52.8-53.7,52.8-53.2,53.1-52.9z M43-56.1
			c0.3,0.3,0.8,0.3,1.1,0c0.3-0.3,0.3-0.8,0-1.1c-0.3-0.3-0.8-0.3-1.1,0C42.7-56.9,42.7-56.4,43-56.1z M39.7-59.5
			c0.3,0.3,0.8,0.3,1.1,0c0.3-0.3,0.3-0.8,0-1.1c-0.3-0.3-0.8-0.3-1.1,0C39.4-60.3,39.4-59.8,39.7-59.5z M3.5-3.9
			C3.4-4,3.3-4.1,3.2-4.1C3-4.2,2.6-4.2,2.4-3.9c-0.3,0.3-0.3,0.8,0,1.1C2.7-2.6,3-2.6,3.2-2.7c0.1,0,0.2-0.1,0.3-0.2
			C3.8-3.1,3.8-3.6,3.5-3.9z M3.5-97.3c-0.1-0.1-0.2-0.1-0.3-0.2c0,0-0.1-0.1-0.1,0c-0.2,0-0.5,0-0.7,0.2c-0.3,0.3-0.3,0.8,0,1.1
			c0.3,0.3,0.6,0.3,0.9,0.1c0.1,0,0.1-0.1,0.2-0.1C3.8-96.5,3.9-97,3.5-97.3z M7.4-7.3c-0.3-0.3-0.8-0.3-1.1,0C6-7,6-6.5,6.3-6.2
			c0.3,0.3,0.8,0.3,1.1,0C7.7-6.5,7.7-7,7.4-7.3z M7.4-94c-0.3-0.3-0.8-0.3-1.1,0c-0.3,0.3-0.3,0.8,0,1.1c0.3,0.3,0.8,0.3,1.1,0
			C7.7-93.2,7.7-93.7,7.4-94z M10.7-10.6c-0.3-0.3-0.8-0.3-1.1,0c-0.3,0.3-0.3,0.8,0,1.1c0.3,0.3,0.8,0.3,1.1,0
			C11-9.8,11-10.3,10.7-10.6z M10.7-90.7c-0.3-0.3-0.8-0.3-1.1,0c-0.3,0.3-0.3,0.8,0,1.1c0.3,0.3,0.8,0.3,1.1,0
			C11-89.9,11-90.4,10.7-90.7z M14.1-14c-0.3-0.3-0.8-0.3-1.1,0c-0.3,0.3-0.3,0.8,0,1.1c0.3,0.3,0.8,0.3,1.1,0
			C14.4-13.2,14.4-13.7,14.1-14z M14.1-87.3c-0.3-0.3-0.8-0.3-1.1,0c-0.3,0.3-0.3,0.8,0,1.1c0.3,0.3,0.8,0.3,1.1,0
			C14.4-86.5,14.4-87,14.1-87.3z M16.3-82.9c0.3,0.3,0.8,0.3,1.1,0c0.3-0.3,0.3-0.8,0-1.1c-0.3-0.3-0.8-0.3-1.1,0
			C16-83.7,16-83.2,16.3-82.9z M17.4-17.3c-0.3-0.3-0.8-0.3-1.1,0c-0.3,0.3-0.3,0.8,0,1.1c0.3,0.3,0.8,0.3,1.1,0
			C17.7-16.5,17.7-17,17.4-17.3z M19.6-79.5c0.3,0.3,0.8,0.3,1.1,0c0.3-0.3,0.3-0.8,0-1.1c-0.3-0.3-0.8-0.3-1.1,0
			C19.3-80.3,19.3-79.8,19.6-79.5z M20.7-20.6c-0.3-0.3-0.8-0.3-1.1,0c-0.3,0.3-0.3,0.8,0,1.1c0.3,0.3,0.8,0.3,1.1,0
			C21.1-19.8,21.1-20.3,20.7-20.6z M23-76.2c0.3,0.3,0.8,0.3,1.1,0c0.3-0.3,0.3-0.8,0-1.1c-0.3-0.3-0.8-0.3-1.1,0
			C22.7-77,22.7-76.5,23-76.2z M24.1-24c-0.3-0.3-0.8-0.3-1.1,0c-0.3,0.3-0.3,0.8,0,1.1c0.3,0.3,0.8,0.3,1.1,0
			C24.4-23.2,24.4-23.7,24.1-24z M26.3-72.8c0.3,0.3,0.8,0.3,1.1,0c0.3-0.3,0.3-0.8,0-1.1c-0.3-0.3-0.8-0.3-1.1,0
			C26-73.6,26-73.1,26.3-72.8z M27.4-27.3c-0.3-0.3-0.8-0.3-1.1,0c-0.3,0.3-0.3,0.8,0,1.1c0.3,0.3,0.8,0.3,1.1,0
			C27.7-26.5,27.7-27,27.4-27.3z M29.7-69.5c0.3,0.3,0.8,0.3,1.1,0c0.3-0.3,0.3-0.8,0-1.1c-0.3-0.3-0.8-0.3-1.1,0
			C29.4-70.3,29.4-69.8,29.7-69.5z M30.8-30.7c-0.3-0.3-0.8-0.3-1.1,0c-0.3,0.3-0.3,0.8,0,1.1c0.3,0.3,0.8,0.3,1.1,0
			C31.1-29.9,31.1-30.4,30.8-30.7z M33-66.2c0.3,0.3,0.8,0.3,1.1,0c0.3-0.3,0.3-0.8,0-1.1c-0.3-0.3-0.8-0.3-1.1,0
			C32.7-67,32.7-66.5,33-66.2z M34.1-34c-0.3-0.3-0.8-0.3-1.1,0c-0.3,0.3-0.3,0.8,0,1.1c0.3,0.3,0.8,0.3,1.1,0
			C34.4-33.2,34.4-33.7,34.1-34z M36.4-62.8c0.3,0.3,0.8,0.3,1.1,0c0.3-0.3,0.3-0.8,0-1.1c-0.3-0.3-0.8-0.3-1.1,0
			C36.1-63.6,36-63.1,36.4-62.8z M37.5-37.4c-0.3-0.3-0.8-0.3-1.1,0c-0.3,0.3-0.3,0.8,0,1.1c0.3,0.3,0.8,0.3,1.1,0
			C37.8-36.6,37.8-37.1,37.5-37.4z M40.8-40.7c-0.3-0.3-0.8-0.3-1.1,0c-0.3,0.3-0.3,0.8,0,1.1c0.3,0.3,0.8,0.3,1.1,0
			C41.1-39.9,41.1-40.4,40.8-40.7z M44.1-44c-0.3-0.3-0.8-0.3-1.1,0c-0.3,0.3-0.3,0.8,0,1.1c0.3,0.3,0.8,0.3,1.1,0
			C44.4-43.2,44.4-43.7,44.1-44z M46.4-52.8c0.3,0.3,0.8,0.3,1.1,0c0.3-0.3,0.3-0.8,0-1.1c-0.3-0.3-0.8-0.3-1.1,0
			C46.1-53.6,46.1-53.1,46.4-52.8z M47.5-47.4c-0.3-0.3-0.8-0.3-1.1,0c-0.3,0.3-0.3,0.8,0,1.1c0.3,0.3,0.8,0.3,1.1,0
			C47.8-46.6,47.8-47.1,47.5-47.4z M52.8-50.1c0-0.7-0.2-1.3-0.7-1.8c-1-1-2.6-1-3.6,0c-0.5,0.5-0.7,1.2-0.7,1.8
			c0,0.6,0.2,1.3,0.7,1.8c1,1,2.6,1,3.6,0C52.5-48.8,52.8-49.4,52.8-50.1z M54.2-47.4c-0.2-0.2-0.4-0.2-0.6-0.2c0,0,0,0,0,0
			c0,0,0,0,0,0c-0.2,0-0.3,0.1-0.5,0.2c-0.3,0.3-0.3,0.8,0,1.1c0.1,0.1,0.3,0.2,0.4,0.2c0,0,0,0,0,0c0,0,0,0,0,0
			c0.2,0,0.5,0,0.7-0.2C54.5-46.6,54.5-47.1,54.2-47.4z M57.3-44c-0.3-0.3-0.8-0.3-1.1,0c-0.3,0.3-0.3,0.8,0,1.1
			c0.3,0.3,0.8,0.3,1.1,0C57.6-43.2,57.6-43.7,57.3-44z M60.7-40.7c-0.3-0.3-0.8-0.3-1.1,0c-0.3,0.3-0.3,0.8,0,1.1
			c0.3,0.3,0.8,0.3,1.1,0C61-39.9,61-40.4,60.7-40.7z M64-37.4c-0.3-0.3-0.8-0.3-1.1,0c-0.3,0.3-0.3,0.8,0,1.1
			c0.3,0.3,0.8,0.3,1.1,0C64.3-36.6,64.3-37.1,64-37.4z M64-63.9c-0.3-0.3-0.8-0.3-1.1,0c-0.3,0.3-0.3,0.8,0,1.1
			c0.3,0.3,0.8,0.3,1.1,0C64.3-63.1,64.3-63.6,64-63.9z M67.4-34c-0.3-0.3-0.8-0.3-1.1,0c-0.3,0.3-0.3,0.8,0,1.1
			c0.3,0.3,0.8,0.3,1.1,0C67.7-33.2,67.7-33.7,67.4-34z M67.4-67.3c-0.3-0.3-0.8-0.3-1.1,0c-0.3,0.3-0.3,0.8,0,1.1
			c0.3,0.3,0.8,0.3,1.1,0C67.7-66.5,67.7-67,67.4-67.3z M70.7-30.7c-0.3-0.3-0.8-0.3-1.1,0c-0.3,0.3-0.3,0.8,0,1.1
			c0.3,0.3,0.8,0.3,1.1,0C71-29.9,71-30.4,70.7-30.7z M70.7-70.6c-0.3-0.3-0.8-0.3-1.1,0c-0.3,0.3-0.3,0.8,0,1.1
			c0.3,0.3,0.8,0.3,1.1,0C71-69.8,71-70.3,70.7-70.6z M74-27.3c-0.3-0.3-0.8-0.3-1.1,0c-0.3,0.3-0.3,0.8,0,1.1
			c0.3,0.3,0.8,0.3,1.1,0C74.3-26.5,74.4-27,74-27.3z M74-73.9c-0.3-0.3-0.8-0.3-1.1,0c-0.3,0.3-0.3,0.8,0,1.1
			c0.3,0.3,0.8,0.3,1.1,0C74.4-73.1,74.3-73.6,74-73.9z M77.4-24c-0.3-0.3-0.8-0.3-1.1,0c-0.3,0.3-0.3,0.8,0,1.1
			c0.3,0.3,0.8,0.3,1.1,0C77.7-23.2,77.7-23.7,77.4-24z M77.4-77.3c-0.3-0.3-0.8-0.3-1.1,0c-0.3,0.3-0.3,0.8,0,1.1
			c0.3,0.3,0.8,0.3,1.1,0C77.7-76.5,77.7-77,77.4-77.3z M80.7-20.7c-0.3-0.3-0.8-0.3-1.1,0c-0.3,0.3-0.3,0.8,0,1.1
			c0.3,0.3,0.8,0.3,1.1,0C81-19.9,81-20.4,80.7-20.7z M80.7-80.6c-0.3-0.3-0.8-0.3-1.1,0c-0.3,0.3-0.3,0.8,0,1.1
			c0.3,0.3,0.8,0.3,1.1,0C81-79.8,81-80.3,80.7-80.6z M84.1-17.3c-0.3-0.3-0.8-0.3-1.1,0c-0.3,0.3-0.3,0.8,0,1.1
			c0.3,0.3,0.8,0.3,1.1,0C84.4-16.5,84.4-17,84.1-17.3z M84.1-84c-0.3-0.3-0.8-0.3-1.1,0c-0.3,0.3-0.3,0.8,0,1.1
			c0.3,0.3,0.8,0.3,1.1,0C84.4-83.2,84.4-83.7,84.1-84z M87.4-14c-0.3-0.3-0.8-0.3-1.1,0c-0.3,0.3-0.3,0.8,0,1.1
			c0.3,0.3,0.8,0.3,1.1,0C87.7-13.2,87.7-13.7,87.4-14z M87.4-87.3c-0.3-0.3-0.8-0.3-1.1,0c-0.3,0.3-0.3,0.8,0,1.1
			c0.3,0.3,0.8,0.3,1.1,0C87.7-86.5,87.7-87,87.4-87.3z M90.8-10.6c-0.3-0.3-0.8-0.3-1.1,0c-0.3,0.3-0.3,0.8,0,1.1
			c0.3,0.3,0.8,0.3,1.1,0C91.1-9.8,91.1-10.3,90.8-10.6z M90.8-90.7c-0.3-0.3-0.8-0.3-1.1,0c-0.3,0.3-0.3,0.8,0,1.1
			c0.3,0.3,0.8,0.3,1.1,0C91.1-89.9,91.1-90.3,90.8-90.7z M94.1-7.3c-0.3-0.3-0.8-0.3-1.1,0c-0.3,0.3-0.3,0.8,0,1.1
			c0.3,0.3,0.8,0.3,1.1,0C94.4-6.5,94.4-7,94.1-7.3z M94.1-94c-0.3-0.3-0.8-0.3-1.1,0c-0.3,0.3-0.3,0.8,0,1.1c0.3,0.3,0.8,0.3,1.1,0
			C94.4-93.2,94.4-93.7,94.1-94z M95.8-96.1c0.2,0.2,0.4,0.2,0.6,0.2c0.1,0,0.2,0,0.3-0.1c0.1,0,0.1-0.1,0.2-0.1
			c0.3-0.3,0.3-0.8,0-1.1c-0.1-0.1-0.3-0.2-0.5-0.2c0,0,0,0-0.1,0c-0.2,0-0.4,0.1-0.6,0.2C95.5-96.9,95.5-96.5,95.8-96.1z M97-3.9
			c-0.1-0.1-0.2-0.2-0.3-0.2c-0.1,0-0.3,0-0.4,0c-0.1,0-0.3,0.1-0.4,0.2c-0.3,0.3-0.3,0.8,0,1.1c0.2,0.2,0.5,0.3,0.7,0.2
			c0.1,0,0.2-0.1,0.2-0.1c0,0,0.1-0.1,0.1-0.1C97.3-3.1,97.3-3.6,97-3.9z"/>
		<path fill="#878787" d="M53.5-52.6c0.2,0,0.5,0,0.6-0.2c0.3-0.3,0.3-0.8,0-1.1c-0.2-0.2-0.4-0.2-0.7-0.2c-0.2,0-0.3,0.1-0.4,0.2
			c-0.3,0.3-0.3,0.8,0,1.1C53.2-52.7,53.4-52.7,53.5-52.6z"/>
		<path fill="#878787" d="M57.3-56.1c0.3-0.3,0.3-0.8,0-1.1c-0.3-0.3-0.8-0.3-1.1,0c-0.3,0.3-0.3,0.8,0,1.1
			C56.5-55.8,57-55.8,57.3-56.1z"/>
		<path fill="#878787" d="M60.7-59.5c0.3-0.3,0.3-0.8,0-1.1c-0.3-0.3-0.8-0.3-1.1,0c-0.3,0.3-0.3,0.8,0,1.1
			C59.9-59.2,60.4-59.2,60.7-59.5z"/>
		<path fill="#878787" d="M62.9-63.9c-0.3,0.3-0.3,0.8,0,1.1c0.3,0.3,0.8,0.3,1.1,0c0.3-0.3,0.3-0.8,0-1.1
			C63.7-64.2,63.2-64.2,62.9-63.9z"/>
		<path fill="#878787" d="M66.3-67.3c-0.3,0.3-0.3,0.8,0,1.1c0.3,0.3,0.8,0.3,1.1,0c0.3-0.3,0.3-0.8,0-1.1
			C67.1-67.6,66.6-67.6,66.3-67.3z"/>
		<path fill="#878787" d="M69.6-70.6c-0.3,0.3-0.3,0.8,0,1.1c0.3,0.3,0.8,0.3,1.1,0c0.3-0.3,0.3-0.8,0-1.1
			C70.4-70.9,69.9-70.9,69.6-70.6z"/>
		<path fill="#878787" d="M72.9-74c-0.3,0.3-0.3,0.8,0,1.1c0.3,0.3,0.8,0.3,1.1,0c0.3-0.3,0.3-0.8,0-1.1
			C73.7-74.3,73.2-74.3,72.9-74z"/>
		<path fill="#878787" d="M76.3-77.3c-0.3,0.3-0.3,0.8,0,1.1c0.3,0.3,0.8,0.3,1.1,0c0.3-0.3,0.3-0.8,0-1.1
			C77.1-77.6,76.6-77.6,76.3-77.3z"/>
		<path fill="#878787" d="M79.6-80.6c-0.3,0.3-0.3,0.8,0,1.1c0.3,0.3,0.8,0.3,1.1,0c0.3-0.3,0.3-0.8,0-1.1
			C80.4-80.9,79.9-80.9,79.6-80.6z"/>
		<path fill="#878787" d="M83-84c-0.3,0.3-0.3,0.8,0,1.1c0.3,0.3,0.8,0.3,1.1,0c0.3-0.3,0.3-0.8,0-1.1C83.8-84.3,83.3-84.3,83-84z"
			/>
		<path fill="#878787" d="M86.3-87.3c-0.3,0.3-0.3,0.8,0,1.1c0.3,0.3,0.8,0.3,1.1,0c0.3-0.3,0.3-0.8,0-1.1
			C87.1-87.6,86.6-87.6,86.3-87.3z"/>
		<path fill="#878787" d="M89.7-90.7c-0.3,0.3-0.3,0.8,0,1.1c0.3,0.3,0.8,0.3,1.1,0c0.3-0.3,0.3-0.8,0-1.1C90.4-91,90-91,89.7-90.7z
			"/>
		<path fill="#878787" d="M93-94c-0.3,0.3-0.3,0.8,0,1.1c0.3,0.3,0.8,0.3,1.1,0c0.3-0.3,0.3-0.8,0-1.1C93.8-94.3,93.3-94.3,93-94z"
			/>
		<path fill="#878787" d="M96.4-95.9c0.1,0,0.2,0,0.3-0.1c0.1,0,0.1-0.1,0.2-0.1c0.3-0.3,0.3-0.8,0-1.1c-0.1-0.1-0.3-0.2-0.5-0.2
			c0,0,0,0-0.1,0c-0.2,0-0.4,0.1-0.6,0.2c-0.3,0.3-0.3,0.8,0,1.1C95.9-96,96.2-95.9,96.4-95.9z"/>
		<path fill="#1D1D1B" d="M48.5-51.9c-0.5,0.5-0.7,1.2-0.7,1.8c0,0.6,0.2,1.3,0.7,1.8c1,1,2.6,1,3.6,0c0.5-0.5,0.7-1.1,0.7-1.7
			c0-0.7-0.2-1.3-0.7-1.8C51.1-52.9,49.5-52.9,48.5-51.9z"/>
		<path fill="#1D1D1B" d="M2.2-100H0v2.5C1.3-97.6,2.2-98.7,2.2-100z"/>
		<path fill="#1D1D1B" d="M97.2-100c0,1.4,1.1,2.5,2.5,2.5c0.1,0,0.2,0,0.3,0v-2.5H97.2z"/>
		<path fill="#1D1D1B" d="M0-2.5V0h2.2C2.2-1.3,1.3-2.4,0-2.5z"/>
		<path fill="#1D1D1B" d="M97.2,0h2.8v-2.5c-0.1,0-0.2,0-0.3,0C98.3-2.5,97.2-1.4,97.2,0z"/>
		<path fill="#878787" d="M3.2-4.1C3-4.2,2.6-4.2,2.4-3.9c-0.3,0.3-0.3,0.8,0,1.1C2.7-2.6,3-2.6,3.2-2.7c0.1,0,0.2-0.1,0.3-0.2
			c0.3-0.3,0.3-0.8,0-1.1C3.4-4,3.3-4.1,3.2-4.1z"/>
		<path fill="#878787" d="M6.3-7.3C6-7,6-6.5,6.3-6.2c0.3,0.3,0.8,0.3,1.1,0c0.3-0.3,0.3-0.8,0-1.1C7.1-7.6,6.6-7.6,6.3-7.3z"/>
		<path fill="#878787" d="M9.6-10.6c-0.3,0.3-0.3,0.8,0,1.1c0.3,0.3,0.8,0.3,1.1,0c0.3-0.3,0.3-0.8,0-1.1
			C10.4-10.9,9.9-10.9,9.6-10.6z"/>
		<path fill="#878787" d="M13-14c-0.3,0.3-0.3,0.8,0,1.1c0.3,0.3,0.8,0.3,1.1,0c0.3-0.3,0.3-0.8,0-1.1C13.8-14.3,13.3-14.3,13-14z"
			/>
		<path fill="#878787" d="M16.3-17.3c-0.3,0.3-0.3,0.8,0,1.1c0.3,0.3,0.8,0.3,1.1,0c0.3-0.3,0.3-0.8,0-1.1
			C17.1-17.6,16.6-17.6,16.3-17.3z"/>
		<path fill="#878787" d="M19.6-20.7c-0.3,0.3-0.3,0.8,0,1.1c0.3,0.3,0.8,0.3,1.1,0c0.3-0.3,0.3-0.8,0-1.1
			C20.4-21,19.9-21,19.6-20.7z"/>
		<path fill="#878787" d="M23-24c-0.3,0.3-0.3,0.8,0,1.1c0.3,0.3,0.8,0.3,1.1,0c0.3-0.3,0.3-0.8,0-1.1C23.8-24.3,23.3-24.3,23-24z"
			/>
		<path fill="#878787" d="M26.3-27.3c-0.3,0.3-0.3,0.8,0,1.1c0.3,0.3,0.8,0.3,1.1,0c0.3-0.3,0.3-0.8,0-1.1
			C27.1-27.6,26.6-27.6,26.3-27.3z"/>
		<path fill="#878787" d="M29.7-30.7c-0.3,0.3-0.3,0.8,0,1.1c0.3,0.3,0.8,0.3,1.1,0c0.3-0.3,0.3-0.8,0-1.1C30.5-31,30-31,29.7-30.7z
			"/>
		<path fill="#878787" d="M33-34c-0.3,0.3-0.3,0.8,0,1.1c0.3,0.3,0.8,0.3,1.1,0c0.3-0.3,0.3-0.8,0-1.1C33.8-34.3,33.3-34.3,33-34z"
			/>
		<path fill="#878787" d="M36.4-37.4c-0.3,0.3-0.3,0.8,0,1.1c0.3,0.3,0.8,0.3,1.1,0c0.3-0.3,0.3-0.8,0-1.1
			C37.1-37.7,36.7-37.7,36.4-37.4z"/>
		<path fill="#878787" d="M39.7-40.7c-0.3,0.3-0.3,0.8,0,1.1c0.3,0.3,0.8,0.3,1.1,0c0.3-0.3,0.3-0.8,0-1.1C40.5-41,40-41,39.7-40.7z
			"/>
		<path fill="#878787" d="M43-44c-0.3,0.3-0.3,0.8,0,1.1c0.3,0.3,0.8,0.3,1.1,0c0.3-0.3,0.3-0.8,0-1.1C43.8-44.3,43.3-44.3,43-44z"
			/>
		<path fill="#878787" d="M46.4-47.4c-0.3,0.3-0.3,0.8,0,1.1c0.3,0.3,0.8,0.3,1.1,0c0.3-0.3,0.3-0.8,0-1.1
			C47.2-47.7,46.7-47.7,46.4-47.4z"/>
		<path fill="#878787" d="M47.5-52.9c0.3-0.3,0.3-0.8,0-1.1c-0.3-0.3-0.8-0.3-1.1,0c-0.3,0.3-0.3,0.8,0,1.1
			C46.7-52.5,47.2-52.5,47.5-52.9z"/>
		<path fill="#878787" d="M44.1-56.1c0.3-0.3,0.3-0.8,0-1.1c-0.3-0.3-0.8-0.3-1.1,0c-0.3,0.3-0.3,0.8,0,1.1
			C43.3-55.8,43.8-55.8,44.1-56.1z"/>
		<path fill="#878787" d="M40.8-59.5c0.3-0.3,0.3-0.8,0-1.1c-0.3-0.3-0.8-0.3-1.1,0c-0.3,0.3-0.3,0.8,0,1.1
			C40-59.2,40.5-59.2,40.8-59.5z"/>
		<path fill="#878787" d="M37.5-62.8c0.3-0.3,0.3-0.8,0-1.1c-0.3-0.3-0.8-0.3-1.1,0c-0.3,0.3-0.3,0.8,0,1.1
			C36.7-62.5,37.1-62.5,37.5-62.8z"/>
		<path fill="#878787" d="M34.1-66.2c0.3-0.3,0.3-0.8,0-1.1c-0.3-0.3-0.8-0.3-1.1,0c-0.3,0.3-0.3,0.8,0,1.1
			C33.3-65.9,33.8-65.9,34.1-66.2z"/>
		<path fill="#878787" d="M30.8-69.5c0.3-0.3,0.3-0.8,0-1.1c-0.3-0.3-0.8-0.3-1.1,0c-0.3,0.3-0.3,0.8,0,1.1
			C30-69.2,30.5-69.2,30.8-69.5z"/>
		<path fill="#878787" d="M27.4-72.8c0.3-0.3,0.3-0.8,0-1.1c-0.3-0.3-0.8-0.3-1.1,0c-0.3,0.3-0.3,0.8,0,1.1
			C26.6-72.5,27.1-72.5,27.4-72.8z"/>
		<path fill="#878787" d="M24.1-76.2c0.3-0.3,0.3-0.8,0-1.1c-0.3-0.3-0.8-0.3-1.1,0c-0.3,0.3-0.3,0.8,0,1.1
			C23.3-75.9,23.8-75.9,24.1-76.2z"/>
		<path fill="#878787" d="M20.7-79.5c0.3-0.3,0.3-0.8,0-1.1c-0.3-0.3-0.8-0.3-1.1,0c-0.3,0.3-0.3,0.8,0,1.1
			C19.9-79.2,20.4-79.2,20.7-79.5z"/>
		<path fill="#878787" d="M17.4-82.9c0.3-0.3,0.3-0.8,0-1.1c-0.3-0.3-0.8-0.3-1.1,0c-0.3,0.3-0.3,0.8,0,1.1
			C16.6-82.6,17.1-82.6,17.4-82.9z"/>
		<path fill="#878787" d="M13-87.3c-0.3,0.3-0.3,0.8,0,1.1c0.3,0.3,0.8,0.3,1.1,0c0.3-0.3,0.3-0.8,0-1.1
			C13.8-87.6,13.3-87.6,13-87.3z"/>
		<path fill="#878787" d="M9.6-90.7c-0.3,0.3-0.3,0.8,0,1.1c0.3,0.3,0.8,0.3,1.1,0c0.3-0.3,0.3-0.8,0-1.1C10.4-91,9.9-91,9.6-90.7z"
			/>
		<path fill="#878787" d="M6.3-94c-0.3,0.3-0.3,0.8,0,1.1c0.3,0.3,0.8,0.3,1.1,0c0.3-0.3,0.3-0.8,0-1.1C7.1-94.3,6.6-94.3,6.3-94z"
			/>
		<path fill="#878787" d="M3.2-97.4c0,0-0.1,0-0.1,0c-0.2,0-0.5,0-0.7,0.2c-0.3,0.3-0.3,0.8,0,1.1c0.3,0.3,0.6,0.3,0.9,0.1
			c0.1,0,0.1-0.1,0.2-0.1c0.3-0.3,0.3-0.8,0-1.1C3.5-97.3,3.3-97.4,3.2-97.4z"/>
		<path fill="#878787" d="M96.6-4.1c-0.1,0-0.3,0-0.4,0c-0.1,0-0.3,0.1-0.4,0.2c-0.3,0.3-0.3,0.8,0,1.1c0.2,0.2,0.5,0.3,0.7,0.2
			c0.1,0,0.2-0.1,0.2-0.1c0,0,0.1-0.1,0.1-0.1c0.3-0.3,0.3-0.8,0-1.1C96.9-4,96.7-4.1,96.6-4.1z"/>
		<path fill="#878787" d="M93-7.3c-0.3,0.3-0.3,0.8,0,1.1c0.3,0.3,0.8,0.3,1.1,0c0.3-0.3,0.3-0.8,0-1.1C93.8-7.6,93.3-7.6,93-7.3z"
			/>
		<path fill="#878787" d="M89.7-10.6c-0.3,0.3-0.3,0.8,0,1.1c0.3,0.3,0.8,0.3,1.1,0c0.3-0.3,0.3-0.8,0-1.1
			C90.5-10.9,90-10.9,89.7-10.6z"/>
		<path fill="#878787" d="M86.3-14c-0.3,0.3-0.3,0.8,0,1.1c0.3,0.3,0.8,0.3,1.1,0c0.3-0.3,0.3-0.8,0-1.1
			C87.1-14.3,86.6-14.3,86.3-14z"/>
		<path fill="#878787" d="M83-17.3c-0.3,0.3-0.3,0.8,0,1.1c0.3,0.3,0.8,0.3,1.1,0c0.3-0.3,0.3-0.8,0-1.1
			C83.8-17.6,83.3-17.6,83-17.3z"/>
		<path fill="#878787" d="M79.6-20.6c-0.3,0.3-0.3,0.8,0,1.1c0.3,0.3,0.8,0.3,1.1,0c0.3-0.3,0.3-0.8,0-1.1
			C80.4-21,79.9-21,79.6-20.6z"/>
		<path fill="#878787" d="M76.3-24c-0.3,0.3-0.3,0.8,0,1.1c0.3,0.3,0.8,0.3,1.1,0c0.3-0.3,0.3-0.8,0-1.1
			C77.1-24.3,76.6-24.3,76.3-24z"/>
		<path fill="#878787" d="M72.9-27.3c-0.3,0.3-0.3,0.8,0,1.1c0.3,0.3,0.8,0.3,1.1,0c0.3-0.3,0.3-0.8,0-1.1
			C73.7-27.6,73.3-27.6,72.9-27.3z"/>
		<path fill="#878787" d="M69.6-30.7c-0.3,0.3-0.3,0.8,0,1.1c0.3,0.3,0.8,0.3,1.1,0c0.3-0.3,0.3-0.8,0-1.1
			C70.4-31,69.9-31,69.6-30.7z"/>
		<path fill="#878787" d="M66.3-34c-0.3,0.3-0.3,0.8,0,1.1c0.3,0.3,0.8,0.3,1.1,0c0.3-0.3,0.3-0.8,0-1.1
			C67.1-34.3,66.6-34.3,66.3-34z"/>
		<path fill="#878787" d="M62.9-37.4c-0.3,0.3-0.3,0.8,0,1.1c0.3,0.3,0.8,0.3,1.1,0c0.3-0.3,0.3-0.8,0-1.1
			C63.7-37.7,63.2-37.7,62.9-37.4z"/>
		<path fill="#878787" d="M59.6-40.7c-0.3,0.3-0.3,0.8,0,1.1c0.3,0.3,0.8,0.3,1.1,0c0.3-0.3,0.3-0.8,0-1.1
			C60.4-41,59.9-41,59.6-40.7z"/>
		<path fill="#878787" d="M56.2-44c-0.3,0.3-0.3,0.8,0,1.1c0.3,0.3,0.8,0.3,1.1,0c0.3-0.3,0.3-0.8,0-1.1C57-44.3,56.5-44.3,56.2-44z
			"/>
		<path fill="#878787" d="M54.2-47.4c-0.2-0.2-0.4-0.2-0.6-0.2c0,0,0,0,0,0c-0.2,0-0.3,0.1-0.5,0.2c-0.3,0.3-0.3,0.8,0,1.1
			c0.1,0.1,0.3,0.2,0.4,0.2c0,0,0,0,0,0c0.2,0,0.5,0,0.6-0.2C54.5-46.6,54.5-47.1,54.2-47.4z"/>
	</g>
</pattern>
<rect fill="url(#Nueva_muestra_de_motivo_11)" width="200" height="200"/>
<rect opacity="0.73" fill="#C7D6DD" width="200" height="200"/>
</svg>
