<?xml version="1.0" encoding="utf-8"?>
<!-- Generator: Adobe Illustrator 16.0.0, SVG Export Plug-In . SVG Version: 6.00 Build 0)  -->
<!DOCTYPE svg PUBLIC "-//W3C//DTD SVG 1.1//EN" "http://www.w3.org/Graphics/SVG/1.1/DTD/svg11.dtd">
<svg version="1.1" id="Layer_1" xmlns="http://www.w3.org/2000/svg" xmlns:xlink="http://www.w3.org/1999/xlink" x="0px" y="0px"
	 width="217px" height="155px" viewBox="0 0 217 155" enable-background="new 0 0 217 155" xml:space="preserve">
<polygon fill="#F9F9F9" points="109.002,102.076 109.002,58.653 90.782,58.653 90.782,51.308 137.372,51.308 137.372,58.653 
	119.154,58.653 119.154,102.076 "/>
<rect x="144.538" y="51.307" fill="#F9F9F9" width="10.155" height="50.769"/>
<polygon fill="#F9F9F9" points="201.7,102.076 172.193,65.87 172.193,102.076 162.038,102.076 162.038,51.308 171.787,51.308 
	200.381,85.919 200.381,51.308 210.538,51.308 210.538,102.076 "/>
<g>
	<path fill="#F9F9F9" d="M68.483,102.041c-8.447,0-15.251-2.445-20.225-7.268c-4.959-4.809-7.472-10.824-7.472-17.883
		c0-7.051,2.653-13.124,7.887-18.045c5.254-4.938,12.242-7.443,20.769-7.443c6.364,0,11.874,1.281,16.388,3.806l-3.941,7.037
		c-3.977-1.603-7.863-2.416-11.558-2.416c-5.552,0-10.166,1.586-13.719,4.71c-3.597,3.162-5.423,7.244-5.423,12.126
		c0,4.905,1.797,9.013,5.338,12.209c3.509,3.167,8.043,4.774,13.484,4.774c2.66,0,5.258-0.371,7.718-1.101
		c1.113-0.331,2.479-0.841,4.066-1.522l3.962,6.889C80.25,100.654,74.445,102.041,68.483,102.041"/>
	<path fill="#F9F9F9" d="M68.383,85.885c-4.825,0-8.751-4.109-8.751-9.163c0-5.054,3.926-9.164,8.751-9.164
		c4.825,0,8.749,4.11,8.749,9.164C77.132,81.773,73.208,85.885,68.383,85.885"/>
	<path fill="#F9F9F9" d="M34.309,115.602c-2.627,0-5.169-1.146-6.975-3.146c-3.393-3.761-3.231-9.431,0.362-12.636
		c1.546-1.379,3.566-2.139,5.689-2.139c2.627,0,5.17,1.146,6.977,3.146c1.648,1.832,2.516,4.16,2.441,6.553
		c-0.076,2.376-1.07,4.535-2.803,6.08C38.453,114.844,36.432,115.602,34.309,115.602"/>
	<path fill="#F9F9F9" d="M32.01,133.466c-0.34,0-0.682-0.007-1.024-0.021c-6.919-0.285-12.828-3.094-17.569-8.346
		c-4.734-5.25-6.835-11.531-6.244-18.674C7.77,99.26,11.29,92.755,17.636,87.094c4.626-4.129,9.464-6.805,14.403-7.971
		c0.391,2.716,1.061,5.344,2.003,7.837c-3.993,1.446-7.381,3.401-10.086,5.815c-4.13,3.684-6.502,7.93-7.05,12.615
		c-0.555,4.746,0.826,8.993,4.106,12.629c3.29,3.648,7.385,5.516,12.168,5.541h0.002c4.804,0,9.223-1.815,13.24-5.399
		c1.983-1.771,3.668-3.771,5.007-5.949c0.675-1.095,1.439-2.58,2.274-4.428c2.358,1.058,4.885,1.897,7.532,2.503
		c-2.258,5.951-5.725,11.038-10.317,15.135C44.938,130.762,38.576,133.466,32.01,133.466"/>
	<path fill="#F9F9F9" d="M32.101,74.333c-4.956-1.155-9.819-3.837-14.465-7.983C11.29,60.685,7.77,54.181,7.173,47.015
		c-0.591-7.139,1.51-13.421,6.244-18.67c4.739-5.252,10.65-8.061,17.569-8.347c0.345-0.014,0.684-0.02,1.024-0.02
		c6.566,0,12.928,2.704,18.908,8.043c4.646,4.143,8.139,9.299,10.397,15.339c-2.607,0.649-5.107,1.528-7.461,2.627
		c-0.895-2-1.708-3.597-2.425-4.758c-1.341-2.176-3.024-4.18-5.005-5.947c-4.019-3.584-8.438-5.4-13.133-5.4
		c-4.894,0.026-8.989,1.891-12.279,5.542c-3.28,3.635-4.661,7.883-4.106,12.626c0.548,4.686,2.92,8.931,7.048,12.618
		c2.753,2.456,6.202,4.43,10.266,5.884C33.238,69.029,32.527,71.637,32.101,74.333"/>
	<path fill="#F9F9F9" d="M33.385,55.762c-2.123,0-4.144-0.759-5.689-2.138c-1.732-1.548-2.727-3.707-2.803-6.082
		c-0.075-2.397,0.791-4.724,2.441-6.551c1.805-2.003,4.348-3.151,6.975-3.151c2.123,0,4.143,0.761,5.691,2.14
		c3.591,3.205,3.753,8.871,0.362,12.633C38.554,54.614,36.012,55.762,33.385,55.762"/>
</g>
</svg>
